<?xml version="1.0" encoding="iso-8859-1"?>
<!-- Uploaded to: SVG Repo, www.svgrepo.com, Generator: SVG Repo Mixer Tools -->
<!DOCTYPE svg PUBLIC "-//W3C//DTD SVG 1.1//EN" "http://www.w3.org/Graphics/SVG/1.1/DTD/svg11.dtd">
<svg fill="#000000" version="1.1" id="Capa_1" xmlns="http://www.w3.org/2000/svg" xmlns:xlink="http://www.w3.org/1999/xlink" 
	 width="800px" height="800px" viewBox="0 0 97.986 97.986"
	 xml:space="preserve">
<g>
	<path d="M37.743,56.576c0.139,0.398,0.298,0.771-0.238,0.958c-0.092,0.017-0.171,0.056-0.222,0.033
		c-0.628-0.282-1.052,0.019-1.482,0.444c-0.102,0.102-0.518,0.067-0.622-0.054c-0.179-0.202-0.474-0.548-0.302-0.769
		c1.061-1.863,0.624-6.228,0.499-7.998c-0.123-1.783-0.38-3.56-0.665-5.327c-0.113-0.698-0.397-1.392-0.723-2.028
		c-0.386-0.759-0.254-1.094,0.576-1.216c0.297-0.044,0.569-0.26,0.855-0.398c0.249-0.12,0.512-0.361,0.742-0.333
		c0.282,0.036,0.657,0.243,0.76,0.479c0.082,0.178-0.127,0.652-0.332,0.76c-0.796,0.421-0.807,1.068-0.709,1.814
		c0.365,2.848,0.681,5.704,1.091,8.545C37.091,52.303,37.469,55.789,37.743,56.576z M62.756,38.982
		c0.213,0.184-0.012,0.582-0.147,0.815c-0.077,0.136-0.479,0.251-0.599,0.171c-0.504-0.333-0.979-0.545-1.541-0.146
		c-0.047,0.031-0.131,0.007-0.225,0.011c-0.561-0.08-0.479-0.477-0.418-0.895c0.116-0.826,0.327-1.661,0.284-2.482
		c-0.149-2.867-0.396-5.729-0.591-8.594c-0.051-0.75-0.188-1.385-1.047-1.643c-0.168-0.049-0.375-0.302-0.451-0.503l-1.072,1.206
		l-0.475,0.738c0.211,0.415,0.265,0.839,0.125,1.232c-0.028,0.077-0.063,0.151-0.104,0.222c1.483,1.029,2.185,2.33,1.797,3.411
		c-0.139,0.387-0.401,0.707-0.767,0.953c0.805,0.854,1.111,1.781,0.822,2.585c-0.146,0.407-0.431,0.742-0.826,0.995
		c0.801,0.852,1.115,1.785,0.826,2.587c-0.287,0.801-1.098,1.325-2.276,1.475c-0.005,0-0.011,0-0.017,0.001
		c0.479,0.904,0.537,1.769,0.135,2.43c-0.396,0.652-1.159,1.002-2.168,1.002c-0.117,0-0.236-0.004-0.358-0.014
		c-0.831-0.064-1.751-0.342-2.647-0.792c-0.062,0.314-0.227,0.592-0.451,0.801c0.158,0.223,0.253,0.495,0.253,0.79v0.228
		c0,0.421-0.193,0.797-0.492,1.049c0.08,0.16,0.13,0.34,0.13,0.532v0.179c0,0.4-0.197,0.752-0.5,0.97
		c0.034,0.072,0.055,0.153,0.055,0.238v0.518c0,0.545-0.44,0.988-0.987,0.988H48.06c-0.313,0-0.566-0.253-0.566-0.564
		c0-0.313,0.253-0.566,0.566-0.566h0.819v-0.374c0-0.003,0.002-0.006,0.002-0.011h-1.06c-0.313,0-0.564-0.254-0.564-0.566
		c0-0.313,0.252-0.565,0.564-0.565h1.438c0.036,0,0.064-0.029,0.064-0.066v-0.179c0-0.036-0.028-0.066-0.064-0.066h-1.438
		c-0.176,0-0.33-0.081-0.434-0.205c-0.19-0.092-0.323-0.285-0.323-0.51c0-0.313,0.252-0.566,0.563-0.566h1.823
		c0.129,0,0.232-0.105,0.232-0.234v-0.227c0-0.129-0.104-0.234-0.232-0.234h-1.823c-0.227,0-0.418-0.134-0.509-0.326
		c-0.108-0.103-0.176-0.247-0.176-0.408c0-0.313,0.253-0.566,0.565-0.566h2.063c0.188,0,0.339-0.151,0.339-0.339v-0.258
		c0-0.044-0.01-0.087-0.024-0.126c-0.099-0.068-0.191-0.139-0.287-0.21c-0.009,0-0.018-0.002-0.027-0.002h-2.063
		c-0.007,0-0.016-0.002-0.023-0.003c-0.237,0.18-0.485,0.354-0.748,0.513c-1.104,0.67-2.281,1.083-3.321,1.162
		c-0.122,0.01-0.24,0.014-0.358,0.014c-1.009,0-1.773-0.35-2.168-1.002c-0.402-0.662-0.345-1.526,0.134-2.43
		c-0.004-0.001-0.01-0.001-0.015-0.001c-1.182-0.15-1.99-0.674-2.278-1.475c-0.288-0.802,0.025-1.736,0.828-2.587
		c-0.397-0.253-0.681-0.587-0.828-0.995c-0.288-0.805,0.019-1.731,0.823-2.585c-0.364-0.246-0.628-0.566-0.765-0.953
		c-0.389-1.081,0.313-2.382,1.795-3.411c-0.039-0.071-0.077-0.146-0.104-0.222c-0.061-0.174-0.082-0.354-0.072-0.535l-0.92-1.435
		l-1.246-1.402c0.002,0.006,0.006,0.012,0.007,0.019c0.042,0.191-0.255,0.615-0.476,0.681c-0.862,0.258-0.996,0.893-1.049,1.643
		c-0.196,2.865-0.441,5.727-0.59,8.594c-0.042,0.821,0.167,1.657,0.284,2.482c0.061,0.418,0.144,0.814-0.419,0.895
		c-0.094-0.003-0.178,0.021-0.225-0.011c-0.561-0.399-1.034-0.187-1.538,0.146c-0.12,0.08-0.522-0.035-0.601-0.171
		c-0.137-0.233-0.36-0.632-0.147-0.815c1.401-1.621,1.305-3.326,1.526-5.089c0.225-1.773,0.319-3.566,0.383-5.353
		c0.026-0.708-0.118-1.445-0.314-2.131c-0.231-0.82-0.036-1.124,0.801-1.081c0.301,0.015,0.61-0.144,0.917-0.224
		c0.269-0.07,0.573-0.254,0.794-0.181c0.07,0.024,0.146,0.06,0.218,0.106c-0.019-0.031-0.036-0.062-0.048-0.094
		c-0.301-0.813-0.277-1.477,0.066-1.973c0.479-0.688,1.407-0.791,1.917-0.791c0.159,0,0.263,0.01,0.263,0.01
		c0.018,0.002,0.039,0.006,0.06,0.01c0.333,0.078,3.276,0.796,3.976,2.308c0.113,0.247,0.154,0.549,0.143,0.883
		c0.385-0.08,0.763-0.125,1.123-0.125c0.532,0,0.985,0.09,1.35,0.256v-0.424c0-0.549,0.347-1.014,0.83-1.193
		c0.078-0.219,0.286-0.378,0.531-0.378h0.819v-0.374c0-0.003,0.002-0.007,0.002-0.011h-1.059c-0.312,0-0.564-0.253-0.564-0.566
		s0.253-0.566,0.564-0.566h1.438c0.036,0,0.065-0.028,0.065-0.064v-0.35c0-0.035-0.029-0.064-0.065-0.064
		c0,0-1.766,0.089-1.87-0.037c-0.191-0.091-0.324-0.285-0.324-0.51c0-0.313,0.253-0.566,0.564-0.566c0,0,1.049,0,1.823,0
		c1.077,0.081,1.003,1.154,1.003,1.348v0.179c0,0.399-0.195,0.751-0.498,0.97c0.034,0.072,0.055,0.153,0.055,0.238v0.517
		c0,0.155-0.039,0.3-0.104,0.432c0.292,0.233,0.482,0.592,0.482,0.997v0.449c0.371-0.186,0.851-0.284,1.412-0.284
		c0.156,0,0.315,0.008,0.479,0.022c0-0.293,0.043-0.559,0.146-0.781c0.699-1.512,3.644-2.229,3.976-2.308
		c0.021-0.004,0.04-0.007,0.06-0.01c0,0,0.104-0.01,0.266-0.01c0.509,0,1.436,0.103,1.914,0.791
		c0.342,0.493,0.367,1.151,0.074,1.955c0.219-0.05,0.508,0.12,0.767,0.187c0.308,0.08,0.614,0.239,0.916,0.224
		c0.837-0.042,1.032,0.261,0.799,1.081c-0.194,0.686-0.337,1.422-0.313,2.131c0.063,1.787,0.158,3.58,0.385,5.353
		C61.452,35.656,61.354,37.362,62.756,38.982z M42.981,29.086c0.454-0.034,0.94-0.135,1.424-0.309
		c0.747-0.269,1.418-0.68,1.842-1.128c0.344-0.365,0.496-0.729,0.409-0.972c-0.112-0.313-0.64-0.514-1.346-0.514
		c-0.397,0-0.827,0.062-1.264,0.18C43.818,27.285,43.368,28.313,42.981,29.086z M39.947,32.11c0.119,0.333,0.594,0.583,1.272,0.667
		c0.833,0.106,1.895-0.043,2.914-0.408c2.075-0.745,3.33-2.125,3.066-2.86c-0.1-0.28-0.487-0.54-0.972-0.659
		c-0.438,0.31-0.955,0.577-1.519,0.779c-0.69,0.247-1.393,0.378-2.034,0.378c-0.061,0-0.118-0.004-0.178-0.006
		c-0.042,0.077-0.079,0.142-0.108,0.191c-0.08,0.141-0.229,0.229-0.393,0.233c-0.002,0-0.006,0-0.01,0
		c-0.159,0-0.309-0.081-0.392-0.215l-0.134-0.203C40.264,30.781,39.783,31.652,39.947,32.11z M39.889,35.648
		c0.12,0.331,0.595,0.582,1.272,0.668c0.835,0.106,1.897-0.043,2.916-0.409c2.074-0.746,3.33-2.125,3.066-2.861
		c-0.092-0.257-0.33-0.419-0.596-0.521c-0.566,0.39-1.241,0.732-1.999,1.004c-0.944,0.339-1.903,0.515-2.768,0.515
		c-0.248,0-0.488-0.015-0.72-0.043c-0.076-0.011-0.148-0.025-0.225-0.039C40.115,34.566,39.739,35.224,39.889,35.648z M44.078,39.49
		c2.074-0.745,3.33-2.124,3.066-2.86c-0.081-0.226-0.328-0.415-0.692-0.539c-0.558,0.377-1.218,0.711-1.958,0.977
		c-0.945,0.338-1.902,0.515-2.771,0.515c-0.244,0-0.485-0.014-0.715-0.043c-0.047-0.006-0.089-0.017-0.134-0.023
		c-0.743,0.609-1.138,1.28-0.984,1.715c0.12,0.333,0.595,0.582,1.272,0.667C41.997,40.004,43.059,39.855,44.078,39.49z
		 M47.771,40.944c-0.414-0.678-0.588-1.329-0.526-1.904c-0.677,0.635-1.619,1.204-2.751,1.609c-0.673,0.241-1.352,0.398-1.999,0.47
		c-0.563,0.725-0.784,1.414-0.555,1.793c0.185,0.301,0.699,0.45,1.383,0.399c0.836-0.063,1.846-0.422,2.771-0.984
		C46.749,41.929,47.33,41.446,47.771,40.944z M50.831,27.649c0.425,0.448,1.095,0.859,1.843,1.128
		c0.243,0.087,0.487,0.153,0.729,0.207c-0.394-0.799-0.839-1.838-1.043-2.775c-0.204-0.027-0.404-0.045-0.595-0.045
		c-0.705,0-1.231,0.202-1.344,0.514C50.335,26.92,50.488,27.285,50.831,27.649z M54.583,41.119c-0.646-0.072-1.325-0.229-1.997-0.47
		c-1.135-0.406-2.076-0.975-2.754-1.609c0.062,0.575-0.109,1.226-0.526,1.904c0.442,0.501,1.024,0.984,1.678,1.383
		c0.927,0.562,1.935,0.921,2.773,0.984c0.68,0.051,1.194-0.098,1.379-0.399C55.366,42.534,55.148,41.844,54.583,41.119z
		 M56.205,37.516c-0.046,0.006-0.088,0.017-0.134,0.023c-0.229,0.029-0.47,0.043-0.718,0.043c-0.865,0-1.825-0.177-2.769-0.515
		c-0.743-0.266-1.399-0.599-1.957-0.977c-0.366,0.125-0.612,0.313-0.696,0.539c-0.262,0.736,0.992,2.115,3.069,2.86
		c1.019,0.366,2.081,0.514,2.914,0.409c0.677-0.085,1.153-0.334,1.272-0.667C57.344,38.796,56.946,38.125,56.205,37.516z
		 M56.242,33.962c-0.077,0.014-0.148,0.028-0.229,0.039c-0.229,0.029-0.471,0.043-0.717,0.043c-0.867,0-1.824-0.176-2.771-0.515
		c-0.759-0.272-1.433-0.615-1.997-1.004c-0.266,0.103-0.504,0.265-0.598,0.521c-0.263,0.736,0.992,2.115,3.068,2.861
		c1.02,0.365,2.081,0.515,2.914,0.409c0.678-0.086,1.153-0.337,1.271-0.668C57.34,35.224,56.963,34.566,56.242,33.962z M55.4,29.875
		c-0.125,0.034-0.26,0.063-0.396,0.085l-0.162,0.251c-0.086,0.135-0.233,0.215-0.394,0.215c-0.004,0-0.009,0-0.011,0
		c-0.164-0.004-0.313-0.092-0.394-0.233c-0.03-0.053-0.071-0.125-0.118-0.209c-0.507-0.047-1.035-0.167-1.559-0.354
		c-0.562-0.202-1.081-0.47-1.52-0.779c-0.483,0.119-0.871,0.379-0.972,0.659c-0.265,0.735,0.992,2.115,3.066,2.86
		c1.021,0.364,2.081,0.514,2.913,0.408c0.68-0.085,1.152-0.335,1.272-0.667C57.305,31.625,56.756,30.678,55.4,29.875z M61.68,40.62
		c-0.297-0.044-0.569-0.26-0.854-0.398c-0.25-0.12-0.515-0.361-0.743-0.333c-0.283,0.036-0.656,0.243-0.762,0.479
		c-0.077,0.178,0.129,0.652,0.334,0.76c0.794,0.421,0.806,1.068,0.711,1.814c-0.367,2.848-0.673,8.413-1.087,11.254
		c-0.117,0.813-0.486,1.592-0.763,2.38c-0.139,0.398-0.297,0.771,0.238,0.958c0.094,0.017,0.172,0.056,0.223,0.033
		c0.629-0.282,1.051,0.019,1.481,0.444c0.103,0.102,0.517,0.067,0.622-0.054c0.18-0.202,0.475-0.548,0.303-0.769
		c-1.061-1.863-0.642-6.228-0.516-7.998c0.126-1.783,0.379-3.56,0.665-5.327c0.11-0.698,0.396-1.392,0.721-2.028
		C62.641,41.077,62.51,40.742,61.68,40.62z M70.287,19.661V58.48c0,1.037-0.846,1.884-1.884,1.884H57.602L57.6,93.704
		c0,2.364-1.918,4.282-4.285,4.282c-2.363,0-4.28-1.918-4.28-4.282v-33.34h-0.609l0.001,33.34c0,2.364-1.918,4.282-4.282,4.282
		c-2.366,0.001-4.284-1.917-4.284-4.282l-0.002-33.34H29.584c-1.04,0-1.885-0.847-1.885-1.884V19.661
		c0-1.039,0.845-1.885,1.885-1.885h15.031c-3.17-1.492-5.368-4.706-5.368-8.442C39.247,4.178,43.424,0,48.58,0
		c5.157,0,9.336,4.178,9.336,9.334c0,3.736-2.199,6.95-5.369,8.442h15.856C69.441,17.776,70.287,18.622,70.287,19.661z
		 M52.717,57.526c-0.512-0.292-0.496-0.583-0.945-0.521c-0.447,0.065-0.684,0.578-1.018,0.883c0.198,0.158,0.459,0.487,0.586,0.444
		C51.744,58.188,52.098,57.906,52.717,57.526z M52.201,53.949c-0.004-0.334-0.555-0.77-0.955-0.939
		c-0.189-0.082-0.641,0.303-0.896,0.556c-0.472,0.465-0.848,1.03-1.344,1.462c-0.168,0.146-0.692,0.143-0.858-0.008
		c-0.512-0.469-0.996-0.994-1.362-1.582c-0.429-0.688-0.878-0.601-1.398-0.215c-0.716,0.53-0.784,1.494-0.126,2.302
		c0.858,1.223,4.792,2.127,6.375,0.219C52.053,55.404,52.209,54.561,52.201,53.949z M44.801,57.583
		c0.373,0.261,0.734,0.556,1.139,0.755c0.089,0.045,0.345-0.248,0.73-0.542c-0.574-0.348-1.001-0.788-1.363-0.784
		C44.944,57.014,44.972,57.381,44.801,57.583z M68.404,58.48l-0.001-38.819H29.584V58.48H44.08
		c-0.154-0.262-0.284-0.576-0.379-0.942c-0.207-0.796-0.467-1.728-1.82-2.649c-0.311-0.504-0.55-1.076-0.941-1.508
		c-1.262-1.384-1.423-2.603-0.457-4.173c1.208-1.963,3.393-2.348,5.108-0.871c0.601,0.519,1.162,1.087,1.695,1.675
		c0.945,1.043,1.649,1.039,2.599-0.015c0.529-0.589,1.096-1.155,1.695-1.675c1.648-1.429,3.739-1.144,4.96,0.732
		c0.416,0.638,0.597,1.431,0.793,1.922c0.427,1.567-1.495,3.14-2.784,4.25c-0.865,0.34-0.927,1.791-1.098,2.343
		c-0.107,0.353-0.238,0.655-0.395,0.911H68.404z"/>
</g>
</svg>